<svg width="105" height="81" viewBox="0 0 105 81" fill="rgb(247,146,30)" xmlns="http://www.w3.org/2000/svg">
<path d="M39.6838 41.6864L39.9188 41.3093L40.1641 40.8588L40.401 40.4052L40.6213 39.9374L40.8308 39.4718L41.0198 38.9854L41.1985 38.4948L41.348 37.9896L41.4942 37.4906L41.6188 36.9734L41.713 36.4598L41.801 35.9385L41.8718 35.4L41.9146 34.8682L41.948 34.3197L41.9598 33.6546L41.889 32.2718L41.6677 30.7932L41.2932 29.3614L40.788 27.988L40.1641 26.6828L39.4094 25.453L38.5546 24.3136L37.6052 23.2573L36.5437 22.3041L35.3958 21.4469L34.1761 20.7016L32.8704 20.0745L31.501 19.5666L30.0598 19.1973L28.5865 18.9693L27.2625 18.9H0L27.0677 61.5958L39.6838 41.6864Z" fill="rgb(109,110,112)"/>
<path d="M9.56767 12.6854L9.60514 13.1052L9.66247 13.512L9.72647 13.9317L9.8094 14.3426L9.90621 14.7412L9.937 14.8812H66.1026L66.1119 14.8906C69.0187 14.9734 71.3546 17.3708 71.3546 20.2948V20.5812L71.4343 20.6317C82.3146 21.7041 92.2985 21.5693 92.2103 33.7562H92.1942C91.4395 32.8281 90.0797 32.2104 88.5463 32.2104H88.3974L74.0879 32.1306C65.3026 32.088 55.5958 44.3478 47.277 57.636L41.8729 66.2588L47.1198 74.5412L47.4573 75.0521L47.889 75.6281L48.3641 76.2L48.8906 76.7385L49.4291 77.2427L50.0062 77.7213L50.6239 78.1588L51.2598 78.552L51.9239 78.9078L52.6119 79.2265L53.3385 79.5015L54.0651 79.7265L54.8239 79.9026L55.6051 80.0359L56.3879 80.1161L57.1786 80.1333L57.9761 80.1161L58.7641 80.0359L59.537 79.9026L60.2942 79.7265L61.0213 79.5015L61.7489 79.2265L62.4427 78.9078L63.1094 78.552L63.7411 78.1588L64.3531 77.7213L64.9318 77.2427L65.4797 76.7291L65.9974 76.2L66.4718 75.6281L66.8879 75.0828L67.2318 74.565L103.019 18.1136L103.2 17.8052L103.404 17.453L103.596 17.0812L103.767 16.7229L103.933 16.3426L104.08 15.9588L104.22 15.5625L104.345 15.1734L104.46 14.7786L104.552 14.3614L104.64 13.9562L104.704 13.5306L104.749 13.1078L104.789 12.6906L104.82 12.265L104.822 11.736L104.77 10.6254L104.591 9.45304L104.303 8.3161L103.892 7.2229L103.396 6.18277L102.805 5.21451L102.11 4.30158L101.357 3.4625L100.52 2.70158L99.613 2.02291L98.6395 1.42917L97.601 0.928105L96.5119 0.522905L95.3677 0.233306L94.1974 0.0573046L93.1385 -2.77758e-05H21.2395L20.1666 0.0573046L18.9985 0.233306L17.8505 0.522905L16.7557 0.928105L15.7307 1.42917L14.7505 2.02291L13.837 2.69837L13.001 3.4625L12.2463 4.30158L11.5609 5.20931L10.9703 6.18277L10.4693 7.2229L10.0729 8.3161L9.7718 9.45304L9.59314 10.6254L9.54114 11.7437L9.54634 12.265L9.56767 12.6854Z" fill="rgb(247,146,30)"/>
</svg>
